<mxfile host="app.diagrams.net" modified="2022-11-15T16:56:35.985Z" agent="5.0 (Windows NT 10.0; Win64; x64) AppleWebKit/537.36 (KHTML, like Gecko) Chrome/107.0.0.0 Safari/537.36" etag="ZnxxZbmUYHi-9OsKC9Y9" version="20.5.3" type="github">
  <diagram id="C5RBs43oDa-KdzZeNtuy" name="Page-1">
    <mxGraphModel dx="1209" dy="711" grid="1" gridSize="10" guides="1" tooltips="1" connect="1" arrows="1" fold="1" page="1" pageScale="1" pageWidth="827" pageHeight="1169" math="0" shadow="0">
      <root>
        <mxCell id="WIyWlLk6GJQsqaUBKTNV-0" />
        <mxCell id="WIyWlLk6GJQsqaUBKTNV-1" parent="WIyWlLk6GJQsqaUBKTNV-0" />
        <mxCell id="ykHU9qM102VM1RdtjoYS-33" style="edgeStyle=orthogonalEdgeStyle;rounded=0;orthogonalLoop=1;jettySize=auto;html=1;exitX=0.5;exitY=1;exitDx=0;exitDy=0;entryX=0.5;entryY=0;entryDx=0;entryDy=0;" edge="1" parent="WIyWlLk6GJQsqaUBKTNV-1" source="ykHU9qM102VM1RdtjoYS-0" target="ykHU9qM102VM1RdtjoYS-15">
          <mxGeometry relative="1" as="geometry" />
        </mxCell>
        <mxCell id="ykHU9qM102VM1RdtjoYS-0" value="3" style="ellipse;whiteSpace=wrap;html=1;" vertex="1" parent="WIyWlLk6GJQsqaUBKTNV-1">
          <mxGeometry x="390" y="640" width="50" height="50" as="geometry" />
        </mxCell>
        <mxCell id="ykHU9qM102VM1RdtjoYS-32" style="edgeStyle=orthogonalEdgeStyle;rounded=0;orthogonalLoop=1;jettySize=auto;html=1;exitX=0.5;exitY=1;exitDx=0;exitDy=0;entryX=0.5;entryY=0;entryDx=0;entryDy=0;" edge="1" parent="WIyWlLk6GJQsqaUBKTNV-1" source="ykHU9qM102VM1RdtjoYS-1" target="ykHU9qM102VM1RdtjoYS-0">
          <mxGeometry relative="1" as="geometry" />
        </mxCell>
        <mxCell id="ykHU9qM102VM1RdtjoYS-1" value="0" style="ellipse;whiteSpace=wrap;html=1;" vertex="1" parent="WIyWlLk6GJQsqaUBKTNV-1">
          <mxGeometry x="390" y="570" width="50" height="50" as="geometry" />
        </mxCell>
        <mxCell id="ykHU9qM102VM1RdtjoYS-28" style="edgeStyle=orthogonalEdgeStyle;rounded=0;orthogonalLoop=1;jettySize=auto;html=1;exitX=0.5;exitY=1;exitDx=0;exitDy=0;entryX=1;entryY=0.5;entryDx=0;entryDy=0;" edge="1" parent="WIyWlLk6GJQsqaUBKTNV-1" source="ykHU9qM102VM1RdtjoYS-2" target="ykHU9qM102VM1RdtjoYS-3">
          <mxGeometry relative="1" as="geometry" />
        </mxCell>
        <mxCell id="ykHU9qM102VM1RdtjoYS-2" value="7" style="ellipse;whiteSpace=wrap;html=1;" vertex="1" parent="WIyWlLk6GJQsqaUBKTNV-1">
          <mxGeometry x="550" y="430" width="50" height="50" as="geometry" />
        </mxCell>
        <mxCell id="ykHU9qM102VM1RdtjoYS-31" style="edgeStyle=orthogonalEdgeStyle;rounded=0;orthogonalLoop=1;jettySize=auto;html=1;exitX=0.5;exitY=1;exitDx=0;exitDy=0;entryX=0.5;entryY=0;entryDx=0;entryDy=0;" edge="1" parent="WIyWlLk6GJQsqaUBKTNV-1" source="ykHU9qM102VM1RdtjoYS-3" target="ykHU9qM102VM1RdtjoYS-1">
          <mxGeometry relative="1" as="geometry" />
        </mxCell>
        <mxCell id="ykHU9qM102VM1RdtjoYS-3" value="6" style="ellipse;whiteSpace=wrap;html=1;" vertex="1" parent="WIyWlLk6GJQsqaUBKTNV-1">
          <mxGeometry x="390" y="500" width="50" height="50" as="geometry" />
        </mxCell>
        <mxCell id="ykHU9qM102VM1RdtjoYS-22" style="edgeStyle=orthogonalEdgeStyle;rounded=0;orthogonalLoop=1;jettySize=auto;html=1;exitX=0;exitY=1;exitDx=0;exitDy=0;entryX=0.5;entryY=0;entryDx=0;entryDy=0;" edge="1" parent="WIyWlLk6GJQsqaUBKTNV-1" source="ykHU9qM102VM1RdtjoYS-4" target="ykHU9qM102VM1RdtjoYS-8">
          <mxGeometry relative="1" as="geometry">
            <Array as="points">
              <mxPoint x="365" y="413" />
            </Array>
          </mxGeometry>
        </mxCell>
        <mxCell id="ykHU9qM102VM1RdtjoYS-23" style="edgeStyle=orthogonalEdgeStyle;rounded=0;orthogonalLoop=1;jettySize=auto;html=1;exitX=1;exitY=1;exitDx=0;exitDy=0;entryX=0.5;entryY=0;entryDx=0;entryDy=0;" edge="1" parent="WIyWlLk6GJQsqaUBKTNV-1" source="ykHU9qM102VM1RdtjoYS-4" target="ykHU9qM102VM1RdtjoYS-7">
          <mxGeometry relative="1" as="geometry" />
        </mxCell>
        <mxCell id="ykHU9qM102VM1RdtjoYS-4" value="10" style="ellipse;whiteSpace=wrap;html=1;" vertex="1" parent="WIyWlLk6GJQsqaUBKTNV-1">
          <mxGeometry x="389" y="370" width="50" height="50" as="geometry" />
        </mxCell>
        <mxCell id="ykHU9qM102VM1RdtjoYS-26" style="edgeStyle=orthogonalEdgeStyle;rounded=0;orthogonalLoop=1;jettySize=auto;html=1;exitX=0.5;exitY=1;exitDx=0;exitDy=0;entryX=1;entryY=0.5;entryDx=0;entryDy=0;" edge="1" parent="WIyWlLk6GJQsqaUBKTNV-1" source="ykHU9qM102VM1RdtjoYS-5" target="ykHU9qM102VM1RdtjoYS-2">
          <mxGeometry relative="1" as="geometry" />
        </mxCell>
        <mxCell id="ykHU9qM102VM1RdtjoYS-5" value="8" style="ellipse;whiteSpace=wrap;html=1;" vertex="1" parent="WIyWlLk6GJQsqaUBKTNV-1">
          <mxGeometry x="600" y="370" width="50" height="50" as="geometry" />
        </mxCell>
        <mxCell id="ykHU9qM102VM1RdtjoYS-27" style="edgeStyle=orthogonalEdgeStyle;rounded=0;orthogonalLoop=1;jettySize=auto;html=1;exitX=0.5;exitY=1;exitDx=0;exitDy=0;entryX=0;entryY=0.5;entryDx=0;entryDy=0;" edge="1" parent="WIyWlLk6GJQsqaUBKTNV-1" source="ykHU9qM102VM1RdtjoYS-6" target="ykHU9qM102VM1RdtjoYS-2">
          <mxGeometry relative="1" as="geometry" />
        </mxCell>
        <mxCell id="ykHU9qM102VM1RdtjoYS-6" value="14" style="ellipse;whiteSpace=wrap;html=1;" vertex="1" parent="WIyWlLk6GJQsqaUBKTNV-1">
          <mxGeometry x="500" y="370" width="50" height="50" as="geometry" />
        </mxCell>
        <mxCell id="ykHU9qM102VM1RdtjoYS-29" style="edgeStyle=orthogonalEdgeStyle;rounded=0;orthogonalLoop=1;jettySize=auto;html=1;exitX=0;exitY=1;exitDx=0;exitDy=0;entryX=1;entryY=0;entryDx=0;entryDy=0;" edge="1" parent="WIyWlLk6GJQsqaUBKTNV-1" source="ykHU9qM102VM1RdtjoYS-7" target="ykHU9qM102VM1RdtjoYS-3">
          <mxGeometry relative="1" as="geometry" />
        </mxCell>
        <mxCell id="ykHU9qM102VM1RdtjoYS-7" value="15" style="ellipse;whiteSpace=wrap;html=1;" vertex="1" parent="WIyWlLk6GJQsqaUBKTNV-1">
          <mxGeometry x="440" y="440" width="50" height="50" as="geometry" />
        </mxCell>
        <mxCell id="ykHU9qM102VM1RdtjoYS-30" style="edgeStyle=orthogonalEdgeStyle;rounded=0;orthogonalLoop=1;jettySize=auto;html=1;exitX=1;exitY=1;exitDx=0;exitDy=0;entryX=0;entryY=0;entryDx=0;entryDy=0;" edge="1" parent="WIyWlLk6GJQsqaUBKTNV-1" source="ykHU9qM102VM1RdtjoYS-8" target="ykHU9qM102VM1RdtjoYS-3">
          <mxGeometry relative="1" as="geometry" />
        </mxCell>
        <mxCell id="ykHU9qM102VM1RdtjoYS-8" value="5" style="ellipse;whiteSpace=wrap;html=1;" vertex="1" parent="WIyWlLk6GJQsqaUBKTNV-1">
          <mxGeometry x="340" y="440" width="50" height="50" as="geometry" />
        </mxCell>
        <mxCell id="ykHU9qM102VM1RdtjoYS-24" style="edgeStyle=orthogonalEdgeStyle;rounded=0;orthogonalLoop=1;jettySize=auto;html=1;exitX=0;exitY=1;exitDx=0;exitDy=0;entryX=0.5;entryY=0;entryDx=0;entryDy=0;" edge="1" parent="WIyWlLk6GJQsqaUBKTNV-1" source="ykHU9qM102VM1RdtjoYS-9" target="ykHU9qM102VM1RdtjoYS-6">
          <mxGeometry relative="1" as="geometry">
            <Array as="points">
              <mxPoint x="557" y="350" />
              <mxPoint x="525" y="350" />
            </Array>
          </mxGeometry>
        </mxCell>
        <mxCell id="ykHU9qM102VM1RdtjoYS-25" style="edgeStyle=orthogonalEdgeStyle;rounded=0;orthogonalLoop=1;jettySize=auto;html=1;exitX=1;exitY=1;exitDx=0;exitDy=0;entryX=0.5;entryY=0;entryDx=0;entryDy=0;" edge="1" parent="WIyWlLk6GJQsqaUBKTNV-1" source="ykHU9qM102VM1RdtjoYS-9" target="ykHU9qM102VM1RdtjoYS-5">
          <mxGeometry relative="1" as="geometry">
            <Array as="points">
              <mxPoint x="593" y="350" />
              <mxPoint x="625" y="350" />
            </Array>
          </mxGeometry>
        </mxCell>
        <mxCell id="ykHU9qM102VM1RdtjoYS-9" value="2" style="ellipse;whiteSpace=wrap;html=1;" vertex="1" parent="WIyWlLk6GJQsqaUBKTNV-1">
          <mxGeometry x="550" y="300" width="50" height="50" as="geometry" />
        </mxCell>
        <mxCell id="ykHU9qM102VM1RdtjoYS-21" style="edgeStyle=orthogonalEdgeStyle;rounded=0;orthogonalLoop=1;jettySize=auto;html=1;exitX=0.5;exitY=1;exitDx=0;exitDy=0;entryX=0.5;entryY=0;entryDx=0;entryDy=0;" edge="1" parent="WIyWlLk6GJQsqaUBKTNV-1" source="ykHU9qM102VM1RdtjoYS-10" target="ykHU9qM102VM1RdtjoYS-4">
          <mxGeometry relative="1" as="geometry" />
        </mxCell>
        <mxCell id="ykHU9qM102VM1RdtjoYS-10" value="13" style="ellipse;whiteSpace=wrap;html=1;" vertex="1" parent="WIyWlLk6GJQsqaUBKTNV-1">
          <mxGeometry x="390" y="300" width="50" height="50" as="geometry" />
        </mxCell>
        <mxCell id="ykHU9qM102VM1RdtjoYS-20" style="edgeStyle=orthogonalEdgeStyle;rounded=0;orthogonalLoop=1;jettySize=auto;html=1;exitX=0.5;exitY=1;exitDx=0;exitDy=0;entryX=0.5;entryY=0;entryDx=0;entryDy=0;" edge="1" parent="WIyWlLk6GJQsqaUBKTNV-1" source="ykHU9qM102VM1RdtjoYS-11" target="ykHU9qM102VM1RdtjoYS-9">
          <mxGeometry relative="1" as="geometry" />
        </mxCell>
        <mxCell id="ykHU9qM102VM1RdtjoYS-11" value="9" style="ellipse;whiteSpace=wrap;html=1;" vertex="1" parent="WIyWlLk6GJQsqaUBKTNV-1">
          <mxGeometry x="550" y="240" width="50" height="50" as="geometry" />
        </mxCell>
        <mxCell id="ykHU9qM102VM1RdtjoYS-19" style="edgeStyle=orthogonalEdgeStyle;rounded=0;orthogonalLoop=1;jettySize=auto;html=1;exitX=0.5;exitY=1;exitDx=0;exitDy=0;entryX=0.5;entryY=0;entryDx=0;entryDy=0;" edge="1" parent="WIyWlLk6GJQsqaUBKTNV-1" source="ykHU9qM102VM1RdtjoYS-12" target="ykHU9qM102VM1RdtjoYS-10">
          <mxGeometry relative="1" as="geometry" />
        </mxCell>
        <mxCell id="ykHU9qM102VM1RdtjoYS-12" value="4" style="ellipse;whiteSpace=wrap;html=1;" vertex="1" parent="WIyWlLk6GJQsqaUBKTNV-1">
          <mxGeometry x="390" y="240" width="50" height="50" as="geometry" />
        </mxCell>
        <mxCell id="ykHU9qM102VM1RdtjoYS-17" style="edgeStyle=orthogonalEdgeStyle;rounded=0;orthogonalLoop=1;jettySize=auto;html=1;exitX=0;exitY=1;exitDx=0;exitDy=0;entryX=0.5;entryY=0;entryDx=0;entryDy=0;" edge="1" parent="WIyWlLk6GJQsqaUBKTNV-1" source="ykHU9qM102VM1RdtjoYS-13" target="ykHU9qM102VM1RdtjoYS-12">
          <mxGeometry relative="1" as="geometry" />
        </mxCell>
        <mxCell id="ykHU9qM102VM1RdtjoYS-18" style="edgeStyle=orthogonalEdgeStyle;rounded=0;orthogonalLoop=1;jettySize=auto;html=1;exitX=1;exitY=1;exitDx=0;exitDy=0;entryX=0.5;entryY=0;entryDx=0;entryDy=0;" edge="1" parent="WIyWlLk6GJQsqaUBKTNV-1" source="ykHU9qM102VM1RdtjoYS-13" target="ykHU9qM102VM1RdtjoYS-11">
          <mxGeometry relative="1" as="geometry" />
        </mxCell>
        <mxCell id="ykHU9qM102VM1RdtjoYS-13" value="1" style="ellipse;whiteSpace=wrap;html=1;" vertex="1" parent="WIyWlLk6GJQsqaUBKTNV-1">
          <mxGeometry x="470" y="170" width="50" height="50" as="geometry" />
        </mxCell>
        <mxCell id="ykHU9qM102VM1RdtjoYS-16" style="edgeStyle=orthogonalEdgeStyle;rounded=0;orthogonalLoop=1;jettySize=auto;html=1;exitX=0.5;exitY=1;exitDx=0;exitDy=0;entryX=0.5;entryY=0;entryDx=0;entryDy=0;" edge="1" parent="WIyWlLk6GJQsqaUBKTNV-1" source="ykHU9qM102VM1RdtjoYS-14" target="ykHU9qM102VM1RdtjoYS-13">
          <mxGeometry relative="1" as="geometry" />
        </mxCell>
        <mxCell id="ykHU9qM102VM1RdtjoYS-14" value="12" style="ellipse;whiteSpace=wrap;html=1;" vertex="1" parent="WIyWlLk6GJQsqaUBKTNV-1">
          <mxGeometry x="470" y="110" width="50" height="50" as="geometry" />
        </mxCell>
        <mxCell id="ykHU9qM102VM1RdtjoYS-34" style="edgeStyle=orthogonalEdgeStyle;rounded=0;orthogonalLoop=1;jettySize=auto;html=1;exitX=1;exitY=0.5;exitDx=0;exitDy=0;entryX=0.5;entryY=0;entryDx=0;entryDy=0;" edge="1" parent="WIyWlLk6GJQsqaUBKTNV-1" source="ykHU9qM102VM1RdtjoYS-15" target="ykHU9qM102VM1RdtjoYS-14">
          <mxGeometry relative="1" as="geometry">
            <Array as="points">
              <mxPoint x="660" y="735" />
              <mxPoint x="660" y="90" />
              <mxPoint x="495" y="90" />
            </Array>
          </mxGeometry>
        </mxCell>
        <mxCell id="ykHU9qM102VM1RdtjoYS-15" value="11" style="ellipse;whiteSpace=wrap;html=1;" vertex="1" parent="WIyWlLk6GJQsqaUBKTNV-1">
          <mxGeometry x="390" y="710" width="50" height="50" as="geometry" />
        </mxCell>
        <mxCell id="ykHU9qM102VM1RdtjoYS-35" value="NOT A" style="text;html=1;align=center;verticalAlign=middle;resizable=0;points=[];autosize=1;strokeColor=none;fillColor=none;" vertex="1" parent="WIyWlLk6GJQsqaUBKTNV-1">
          <mxGeometry x="409" y="170" width="60" height="30" as="geometry" />
        </mxCell>
        <mxCell id="ykHU9qM102VM1RdtjoYS-36" value="A" style="text;html=1;align=center;verticalAlign=middle;resizable=0;points=[];autosize=1;strokeColor=none;fillColor=none;" vertex="1" parent="WIyWlLk6GJQsqaUBKTNV-1">
          <mxGeometry x="535" y="170" width="30" height="30" as="geometry" />
        </mxCell>
        <mxCell id="ykHU9qM102VM1RdtjoYS-37" value="NOT B" style="text;html=1;align=center;verticalAlign=middle;resizable=0;points=[];autosize=1;strokeColor=none;fillColor=none;" vertex="1" parent="WIyWlLk6GJQsqaUBKTNV-1">
          <mxGeometry x="330" y="385" width="60" height="30" as="geometry" />
        </mxCell>
        <mxCell id="ykHU9qM102VM1RdtjoYS-40" value="B" style="text;html=1;align=center;verticalAlign=middle;resizable=0;points=[];autosize=1;strokeColor=none;fillColor=none;" vertex="1" parent="WIyWlLk6GJQsqaUBKTNV-1">
          <mxGeometry x="445" y="385" width="30" height="30" as="geometry" />
        </mxCell>
        <mxCell id="ykHU9qM102VM1RdtjoYS-41" value="NOT B" style="text;html=1;align=center;verticalAlign=middle;resizable=0;points=[];autosize=1;strokeColor=none;fillColor=none;" vertex="1" parent="WIyWlLk6GJQsqaUBKTNV-1">
          <mxGeometry x="500" y="315" width="60" height="30" as="geometry" />
        </mxCell>
        <mxCell id="ykHU9qM102VM1RdtjoYS-42" value="B" style="text;html=1;align=center;verticalAlign=middle;resizable=0;points=[];autosize=1;strokeColor=none;fillColor=none;" vertex="1" parent="WIyWlLk6GJQsqaUBKTNV-1">
          <mxGeometry x="605" y="315" width="30" height="30" as="geometry" />
        </mxCell>
      </root>
    </mxGraphModel>
  </diagram>
</mxfile>
